<mxfile host="65bd71144e">
    <diagram id="dDPzNShVRNH9cPpfi_1M" name="第 1 页">
        <mxGraphModel dx="1674" dy="1150" grid="1" gridSize="10" guides="1" tooltips="1" connect="1" arrows="1" fold="1" page="1" pageScale="1" pageWidth="827" pageHeight="1169" math="0" shadow="0">
            <root>
                <mxCell id="0"/>
                <mxCell id="1" parent="0"/>
                <mxCell id="2" style="edgeStyle=none;html=1;entryX=0;entryY=0.5;entryDx=0;entryDy=0;fontSize=18;" edge="1" parent="1" source="iVKF6QRcsDcTEFVmEp1s-2" target="iVKF6QRcsDcTEFVmEp1s-4">
                    <mxGeometry relative="1" as="geometry"/>
                </mxCell>
                <mxCell id="iVKF6QRcsDcTEFVmEp1s-2" value="" style="ellipse;shape=doubleEllipse;html=1;dashed=0;whitespace=wrap;aspect=fixed;fontFamily=宋体;fontSize=18;" parent="1" vertex="1">
                    <mxGeometry x="190" y="330" width="60" height="60" as="geometry"/>
                </mxCell>
                <mxCell id="3" style="edgeStyle=none;html=1;exitX=1;exitY=0.5;exitDx=0;exitDy=0;fontSize=18;entryX=0;entryY=0.5;entryDx=0;entryDy=0;entryPerimeter=0;" edge="1" parent="1" source="iVKF6QRcsDcTEFVmEp1s-4" target="iVKF6QRcsDcTEFVmEp1s-9">
                    <mxGeometry relative="1" as="geometry">
                        <mxPoint x="370" y="360" as="targetPoint"/>
                    </mxGeometry>
                </mxCell>
                <mxCell id="iVKF6QRcsDcTEFVmEp1s-4" value="加载中文时间表达式&lt;br style=&quot;font-size: 18px;&quot;&gt;解析模块配置" style="rounded=0;whiteSpace=wrap;html=1;fontFamily=宋体;fontSize=18;" parent="1" vertex="1">
                    <mxGeometry x="320" y="320" width="120" height="80" as="geometry"/>
                </mxCell>
                <mxCell id="iVKF6QRcsDcTEFVmEp1s-21" style="edgeStyle=orthogonalEdgeStyle;rounded=0;orthogonalLoop=1;jettySize=auto;html=1;exitX=0.5;exitY=1;exitDx=0;exitDy=0;exitPerimeter=0;fontFamily=宋体;fontSize=18;" parent="1" source="iVKF6QRcsDcTEFVmEp1s-9" target="iVKF6QRcsDcTEFVmEp1s-20" edge="1">
                    <mxGeometry relative="1" as="geometry"/>
                </mxCell>
                <mxCell id="4" style="edgeStyle=none;html=1;exitX=1;exitY=0.5;exitDx=0;exitDy=0;exitPerimeter=0;entryX=0;entryY=0.5;entryDx=0;entryDy=0;fontSize=18;" edge="1" parent="1" source="iVKF6QRcsDcTEFVmEp1s-9" target="iVKF6QRcsDcTEFVmEp1s-11">
                    <mxGeometry relative="1" as="geometry"/>
                </mxCell>
                <mxCell id="iVKF6QRcsDcTEFVmEp1s-9" value="存在&lt;br style=&quot;font-size: 18px&quot;&gt;贝叶斯模型&lt;br&gt;参数" style="strokeWidth=2;html=1;shape=mxgraph.flowchart.decision;whiteSpace=wrap;fontFamily=宋体;fontSize=18;" parent="1" vertex="1">
                    <mxGeometry x="482" y="302.5" width="116" height="115" as="geometry"/>
                </mxCell>
                <mxCell id="iVKF6QRcsDcTEFVmEp1s-23" style="edgeStyle=orthogonalEdgeStyle;rounded=0;orthogonalLoop=1;jettySize=auto;html=1;exitX=0.5;exitY=1;exitDx=0;exitDy=0;entryX=0.5;entryY=0;entryDx=0;entryDy=0;fontFamily=宋体;fontSize=18;" parent="1" source="iVKF6QRcsDcTEFVmEp1s-11" target="iVKF6QRcsDcTEFVmEp1s-22" edge="1">
                    <mxGeometry relative="1" as="geometry"/>
                </mxCell>
                <mxCell id="iVKF6QRcsDcTEFVmEp1s-11" value="加载预先标注&lt;br style=&quot;font-size: 18px;&quot;&gt;文本语料" style="rounded=0;whiteSpace=wrap;html=1;fontFamily=宋体;fontSize=18;" parent="1" vertex="1">
                    <mxGeometry x="640" y="320" width="120" height="80" as="geometry"/>
                </mxCell>
                <mxCell id="9" style="edgeStyle=none;html=1;fontSize=18;exitX=0;exitY=0.5;exitDx=0;exitDy=0;" edge="1" parent="1" source="iVKF6QRcsDcTEFVmEp1s-20" target="iVKF6QRcsDcTEFVmEp1s-13">
                    <mxGeometry relative="1" as="geometry"/>
                </mxCell>
                <mxCell id="iVKF6QRcsDcTEFVmEp1s-13" value="组件语法分析树" style="rounded=0;whiteSpace=wrap;html=1;fontFamily=宋体;fontSize=18;" parent="1" vertex="1">
                    <mxGeometry x="320" y="520" width="120" height="80" as="geometry"/>
                </mxCell>
                <mxCell id="8" style="edgeStyle=none;html=1;fontSize=18;exitX=0;exitY=0.5;exitDx=0;exitDy=0;" edge="1" parent="1" source="iVKF6QRcsDcTEFVmEp1s-13" target="iVKF6QRcsDcTEFVmEp1s-15">
                    <mxGeometry relative="1" as="geometry"/>
                </mxCell>
                <mxCell id="iVKF6QRcsDcTEFVmEp1s-15" value="冲突消解" style="rounded=0;whiteSpace=wrap;html=1;fontFamily=宋体;fontSize=18;" parent="1" vertex="1">
                    <mxGeometry x="160" y="520" width="120" height="80" as="geometry"/>
                </mxCell>
                <mxCell id="7" style="edgeStyle=none;html=1;fontSize=18;" edge="1" parent="1" source="iVKF6QRcsDcTEFVmEp1s-15" target="iVKF6QRcsDcTEFVmEp1s-17">
                    <mxGeometry relative="1" as="geometry"/>
                </mxCell>
                <mxCell id="iVKF6QRcsDcTEFVmEp1s-17" value="解析最终结果" style="rounded=0;whiteSpace=wrap;html=1;fontFamily=宋体;fontSize=18;" parent="1" vertex="1">
                    <mxGeometry y="520" width="120" height="80" as="geometry"/>
                </mxCell>
                <mxCell id="6" style="edgeStyle=none;html=1;entryX=0;entryY=0.5;entryDx=0;entryDy=0;fontSize=18;" edge="1" parent="1" source="iVKF6QRcsDcTEFVmEp1s-18" target="iVKF6QRcsDcTEFVmEp1s-17">
                    <mxGeometry relative="1" as="geometry"/>
                </mxCell>
                <mxCell id="iVKF6QRcsDcTEFVmEp1s-18" value="" style="ellipse;html=1;shape=endState;fillColor=#000000;strokeColor=#000000;fontFamily=宋体;fontSize=18;" parent="1" vertex="1">
                    <mxGeometry x="-110" y="530" width="60" height="60" as="geometry"/>
                </mxCell>
                <mxCell id="iVKF6QRcsDcTEFVmEp1s-20" value="加载贝叶斯模型参数" style="rounded=0;whiteSpace=wrap;html=1;fontFamily=宋体;fontSize=18;" parent="1" vertex="1">
                    <mxGeometry x="480" y="520" width="120" height="80" as="geometry"/>
                </mxCell>
                <mxCell id="iVKF6QRcsDcTEFVmEp1s-24" style="edgeStyle=orthogonalEdgeStyle;rounded=0;orthogonalLoop=1;jettySize=auto;html=1;exitX=0;exitY=0.5;exitDx=0;exitDy=0;entryX=1;entryY=0.5;entryDx=0;entryDy=0;fontFamily=宋体;fontSize=18;" parent="1" source="iVKF6QRcsDcTEFVmEp1s-22" target="iVKF6QRcsDcTEFVmEp1s-20" edge="1">
                    <mxGeometry relative="1" as="geometry"/>
                </mxCell>
                <mxCell id="iVKF6QRcsDcTEFVmEp1s-22" value="贝叶斯模型&lt;br style=&quot;font-size: 18px;&quot;&gt;参数训练" style="rounded=0;whiteSpace=wrap;html=1;fontFamily=宋体;fontSize=18;" parent="1" vertex="1">
                    <mxGeometry x="640" y="520" width="120" height="80" as="geometry"/>
                </mxCell>
            </root>
        </mxGraphModel>
    </diagram>
</mxfile>